<mxfile host="Electron" modified="2024-08-23T00:12:25.651Z" agent="Mozilla/5.0 (Windows NT 10.0; Win64; x64) AppleWebKit/537.36 (KHTML, like Gecko) draw.io/22.1.2 Chrome/114.0.5735.289 Electron/25.9.4 Safari/537.36" etag="suUZIPK-9yAVHeKZgeEI" version="22.1.2" type="device">
  <diagram name="Page-1" id="Wt32AvasoYrse62VUaRr">
    <mxGraphModel dx="276" dy="170" grid="1" gridSize="10" guides="1" tooltips="1" connect="1" arrows="1" fold="1" page="1" pageScale="1" pageWidth="1920" pageHeight="1200" math="0" shadow="0">
      <root>
        <mxCell id="0" />
        <mxCell id="1" parent="0" />
        <mxCell id="zMRgdvd7SyovayltF2mc-54" style="edgeStyle=orthogonalEdgeStyle;rounded=0;orthogonalLoop=1;jettySize=auto;html=1;" edge="1" parent="1" source="zMRgdvd7SyovayltF2mc-1" target="zMRgdvd7SyovayltF2mc-50">
          <mxGeometry relative="1" as="geometry">
            <Array as="points">
              <mxPoint x="360" y="90" />
              <mxPoint x="360" y="90" />
            </Array>
          </mxGeometry>
        </mxCell>
        <mxCell id="zMRgdvd7SyovayltF2mc-55" style="edgeStyle=orthogonalEdgeStyle;rounded=0;orthogonalLoop=1;jettySize=auto;html=1;" edge="1" parent="1" source="zMRgdvd7SyovayltF2mc-1" target="zMRgdvd7SyovayltF2mc-51">
          <mxGeometry relative="1" as="geometry">
            <Array as="points">
              <mxPoint x="560" y="80" />
              <mxPoint x="560" y="80" />
            </Array>
          </mxGeometry>
        </mxCell>
        <mxCell id="zMRgdvd7SyovayltF2mc-59" style="edgeStyle=orthogonalEdgeStyle;rounded=0;orthogonalLoop=1;jettySize=auto;html=1;" edge="1" parent="1" source="zMRgdvd7SyovayltF2mc-1" target="zMRgdvd7SyovayltF2mc-58">
          <mxGeometry relative="1" as="geometry" />
        </mxCell>
        <mxCell id="zMRgdvd7SyovayltF2mc-1" value="Military Entity" style="shape=cube;whiteSpace=wrap;html=1;boundedLbl=1;backgroundOutline=1;darkOpacity=0.05;darkOpacity2=0.1;size=10;" vertex="1" parent="1">
          <mxGeometry x="310" y="40" width="300" height="30" as="geometry" />
        </mxCell>
        <mxCell id="zMRgdvd7SyovayltF2mc-50" value="LOS" style="shape=cube;whiteSpace=wrap;html=1;boundedLbl=1;backgroundOutline=1;darkOpacity=0.05;darkOpacity2=0.1;size=10;" vertex="1" parent="1">
          <mxGeometry x="310" y="100" width="100" height="30" as="geometry" />
        </mxCell>
        <mxCell id="zMRgdvd7SyovayltF2mc-51" value="Path Finding" style="shape=cube;whiteSpace=wrap;html=1;boundedLbl=1;backgroundOutline=1;darkOpacity=0.05;darkOpacity2=0.1;size=10;" vertex="1" parent="1">
          <mxGeometry x="510" y="100" width="100" height="30" as="geometry" />
        </mxCell>
        <mxCell id="zMRgdvd7SyovayltF2mc-52" value="Quad Tree" style="shape=cube;whiteSpace=wrap;html=1;boundedLbl=1;backgroundOutline=1;darkOpacity=0.05;darkOpacity2=0.1;size=10;" vertex="1" parent="1">
          <mxGeometry x="310" y="160" width="300" height="30" as="geometry" />
        </mxCell>
        <mxCell id="zMRgdvd7SyovayltF2mc-56" style="edgeStyle=orthogonalEdgeStyle;rounded=0;orthogonalLoop=1;jettySize=auto;html=1;entryX=0.833;entryY=0;entryDx=0;entryDy=0;entryPerimeter=0;" edge="1" parent="1" source="zMRgdvd7SyovayltF2mc-51" target="zMRgdvd7SyovayltF2mc-52">
          <mxGeometry relative="1" as="geometry" />
        </mxCell>
        <mxCell id="zMRgdvd7SyovayltF2mc-57" style="edgeStyle=orthogonalEdgeStyle;rounded=0;orthogonalLoop=1;jettySize=auto;html=1;entryX=0.167;entryY=0;entryDx=0;entryDy=0;entryPerimeter=0;" edge="1" parent="1" source="zMRgdvd7SyovayltF2mc-50" target="zMRgdvd7SyovayltF2mc-52">
          <mxGeometry relative="1" as="geometry" />
        </mxCell>
        <mxCell id="zMRgdvd7SyovayltF2mc-58" value="Bullet Physics" style="shape=cube;whiteSpace=wrap;html=1;boundedLbl=1;backgroundOutline=1;darkOpacity=0.05;darkOpacity2=0.1;size=10;" vertex="1" parent="1">
          <mxGeometry x="410" y="100" width="100" height="30" as="geometry" />
        </mxCell>
        <mxCell id="zMRgdvd7SyovayltF2mc-61" style="edgeStyle=orthogonalEdgeStyle;rounded=0;orthogonalLoop=1;jettySize=auto;html=1;entryX=0.5;entryY=0;entryDx=0;entryDy=0;entryPerimeter=0;" edge="1" parent="1" source="zMRgdvd7SyovayltF2mc-58" target="zMRgdvd7SyovayltF2mc-52">
          <mxGeometry relative="1" as="geometry" />
        </mxCell>
        <mxCell id="zMRgdvd7SyovayltF2mc-64" value="Terrain Costs" style="shape=cube;whiteSpace=wrap;html=1;boundedLbl=1;backgroundOutline=1;darkOpacity=0.05;darkOpacity2=0.1;size=10;" vertex="1" parent="1">
          <mxGeometry x="310" y="220" width="100" height="30" as="geometry" />
        </mxCell>
        <mxCell id="zMRgdvd7SyovayltF2mc-65" value="Entity Positions" style="shape=cube;whiteSpace=wrap;html=1;boundedLbl=1;backgroundOutline=1;darkOpacity=0.05;darkOpacity2=0.1;size=10;" vertex="1" parent="1">
          <mxGeometry x="410" y="220" width="100" height="30" as="geometry" />
        </mxCell>
        <mxCell id="zMRgdvd7SyovayltF2mc-66" value="Structures" style="shape=cube;whiteSpace=wrap;html=1;boundedLbl=1;backgroundOutline=1;darkOpacity=0.05;darkOpacity2=0.1;size=10;" vertex="1" parent="1">
          <mxGeometry x="510" y="220" width="100" height="30" as="geometry" />
        </mxCell>
        <mxCell id="zMRgdvd7SyovayltF2mc-67" style="edgeStyle=orthogonalEdgeStyle;rounded=0;orthogonalLoop=1;jettySize=auto;html=1;entryX=0.167;entryY=1.107;entryDx=0;entryDy=0;entryPerimeter=0;startArrow=classic;startFill=1;endArrow=none;endFill=0;" edge="1" parent="1" source="zMRgdvd7SyovayltF2mc-64" target="zMRgdvd7SyovayltF2mc-52">
          <mxGeometry relative="1" as="geometry" />
        </mxCell>
        <mxCell id="zMRgdvd7SyovayltF2mc-68" style="edgeStyle=orthogonalEdgeStyle;rounded=0;orthogonalLoop=1;jettySize=auto;html=1;entryX=0.5;entryY=1;entryDx=0;entryDy=0;entryPerimeter=0;startArrow=classic;startFill=1;endArrow=none;endFill=0;" edge="1" parent="1" source="zMRgdvd7SyovayltF2mc-65" target="zMRgdvd7SyovayltF2mc-52">
          <mxGeometry relative="1" as="geometry" />
        </mxCell>
        <mxCell id="zMRgdvd7SyovayltF2mc-69" style="edgeStyle=orthogonalEdgeStyle;rounded=0;orthogonalLoop=1;jettySize=auto;html=1;entryX=0.833;entryY=1;entryDx=0;entryDy=0;entryPerimeter=0;startArrow=classic;startFill=1;endArrow=none;endFill=0;" edge="1" parent="1" source="zMRgdvd7SyovayltF2mc-66" target="zMRgdvd7SyovayltF2mc-52">
          <mxGeometry relative="1" as="geometry" />
        </mxCell>
        <mxCell id="zMRgdvd7SyovayltF2mc-63" value="Immediate Mode Rendering" style="shape=cube;whiteSpace=wrap;html=1;boundedLbl=1;backgroundOutline=1;darkOpacity=0.05;darkOpacity2=0.1;size=10;" vertex="1" parent="1">
          <mxGeometry x="100" y="120" width="170" height="30" as="geometry" />
        </mxCell>
        <mxCell id="zMRgdvd7SyovayltF2mc-62" value="UI Rendering" style="shape=cube;whiteSpace=wrap;html=1;boundedLbl=1;backgroundOutline=1;darkOpacity=0.05;darkOpacity2=0.1;size=10;" vertex="1" parent="1">
          <mxGeometry x="100" y="100" width="170" height="30" as="geometry" />
        </mxCell>
        <mxCell id="zMRgdvd7SyovayltF2mc-2" value="Sprite Rendering" style="shape=cube;whiteSpace=wrap;html=1;boundedLbl=1;backgroundOutline=1;darkOpacity=0.05;darkOpacity2=0.1;size=10;" vertex="1" parent="1">
          <mxGeometry x="100" y="80" width="170" height="30" as="geometry" />
        </mxCell>
        <mxCell id="zMRgdvd7SyovayltF2mc-49" value="Audio Player" style="shape=cube;whiteSpace=wrap;html=1;boundedLbl=1;backgroundOutline=1;darkOpacity=0.05;darkOpacity2=0.1;size=10;" vertex="1" parent="1">
          <mxGeometry x="100" y="60" width="170" height="30" as="geometry" />
        </mxCell>
        <mxCell id="zMRgdvd7SyovayltF2mc-18" value="Component Execution" style="shape=cube;whiteSpace=wrap;html=1;boundedLbl=1;backgroundOutline=1;darkOpacity=0.05;darkOpacity2=0.1;size=10;" vertex="1" parent="1">
          <mxGeometry x="100" y="40" width="170" height="30" as="geometry" />
        </mxCell>
        <mxCell id="zMRgdvd7SyovayltF2mc-76" value="" style="verticalLabelPosition=bottom;verticalAlign=top;html=1;shape=mxgraph.basic.smiley" vertex="1" parent="1">
          <mxGeometry x="1110" y="780" width="40" height="40" as="geometry" />
        </mxCell>
        <mxCell id="zMRgdvd7SyovayltF2mc-79" value="" style="verticalLabelPosition=bottom;verticalAlign=top;html=1;shape=mxgraph.basic.smiley" vertex="1" parent="1">
          <mxGeometry x="1510.15" y="750" width="40" height="40" as="geometry" />
        </mxCell>
        <mxCell id="zMRgdvd7SyovayltF2mc-80" value="" style="verticalLabelPosition=bottom;verticalAlign=top;html=1;shape=mxgraph.basic.smiley" vertex="1" parent="1">
          <mxGeometry x="1330" y="750" width="40" height="40" as="geometry" />
        </mxCell>
        <mxCell id="zMRgdvd7SyovayltF2mc-81" value="" style="verticalLabelPosition=bottom;verticalAlign=top;html=1;shape=mxgraph.basic.smiley" vertex="1" parent="1">
          <mxGeometry x="1450" y="750" width="40" height="40" as="geometry" />
        </mxCell>
        <mxCell id="zMRgdvd7SyovayltF2mc-82" value="" style="verticalLabelPosition=bottom;verticalAlign=top;html=1;shape=mxgraph.basic.smiley" vertex="1" parent="1">
          <mxGeometry x="1390" y="750" width="40" height="40" as="geometry" />
        </mxCell>
        <mxCell id="zMRgdvd7SyovayltF2mc-83" value="" style="verticalLabelPosition=bottom;verticalAlign=top;html=1;shape=mxgraph.basic.smiley" vertex="1" parent="1">
          <mxGeometry x="1380" y="670" width="40" height="40" as="geometry" />
        </mxCell>
        <mxCell id="zMRgdvd7SyovayltF2mc-84" value="" style="verticalLabelPosition=bottom;verticalAlign=top;html=1;shape=mxgraph.basic.smiley" vertex="1" parent="1">
          <mxGeometry x="1180" y="670" width="40" height="40" as="geometry" />
        </mxCell>
        <mxCell id="zMRgdvd7SyovayltF2mc-89" value="" style="verticalLabelPosition=bottom;html=1;verticalAlign=top;align=center;shape=mxgraph.floorplan.doorRight;aspect=fixed;rotation=0;direction=south;" vertex="1" parent="1">
          <mxGeometry x="1500" y="414.56999999999994" width="80.15" height="75.43" as="geometry" />
        </mxCell>
        <mxCell id="zMRgdvd7SyovayltF2mc-92" value="" style="verticalLabelPosition=bottom;html=1;verticalAlign=top;align=center;shape=mxgraph.floorplan.wallCorner;fillColor=strokeColor;direction=west;" vertex="1" parent="1">
          <mxGeometry x="1480.15" y="490" width="100" height="250" as="geometry" />
        </mxCell>
        <mxCell id="zMRgdvd7SyovayltF2mc-93" value="" style="verticalLabelPosition=bottom;html=1;verticalAlign=top;align=center;shape=mxgraph.floorplan.wallCorner;fillColor=strokeColor;direction=south;" vertex="1" parent="1">
          <mxGeometry x="1140" y="340" width="440.15" height="74.57" as="geometry" />
        </mxCell>
        <mxCell id="zMRgdvd7SyovayltF2mc-94" value="" style="verticalLabelPosition=bottom;html=1;verticalAlign=top;align=center;shape=mxgraph.floorplan.window;direction=south;" vertex="1" parent="1">
          <mxGeometry x="1140" y="410" width="10" height="100" as="geometry" />
        </mxCell>
        <mxCell id="zMRgdvd7SyovayltF2mc-95" value="" style="verticalLabelPosition=bottom;html=1;verticalAlign=top;align=center;shape=mxgraph.floorplan.wallCorner;fillColor=strokeColor;direction=east;" vertex="1" parent="1">
          <mxGeometry x="1140" y="340" width="100" height="70" as="geometry" />
        </mxCell>
        <mxCell id="zMRgdvd7SyovayltF2mc-96" value="" style="verticalLabelPosition=bottom;html=1;verticalAlign=top;align=center;shape=mxgraph.floorplan.wallCorner;fillColor=strokeColor;direction=north;" vertex="1" parent="1">
          <mxGeometry x="1140" y="510" width="100" height="230" as="geometry" />
        </mxCell>
        <mxCell id="zMRgdvd7SyovayltF2mc-97" value="" style="verticalLabelPosition=bottom;html=1;verticalAlign=top;align=center;shape=mxgraph.floorplan.doorRight;aspect=fixed;direction=west;" vertex="1" parent="1">
          <mxGeometry x="1240" y="655" width="80" height="85" as="geometry" />
        </mxCell>
        <mxCell id="zMRgdvd7SyovayltF2mc-98" value="" style="verticalLabelPosition=bottom;html=1;verticalAlign=top;align=center;shape=mxgraph.floorplan.windowGlider;dx=0.25;direction=east;" vertex="1" parent="1">
          <mxGeometry x="1380.15" y="730" width="100" height="10" as="geometry" />
        </mxCell>
        <mxCell id="zMRgdvd7SyovayltF2mc-99" value="" style="verticalLabelPosition=bottom;html=1;verticalAlign=top;align=center;shape=mxgraph.floorplan.wall;fillColor=strokeColor;direction=east;" vertex="1" parent="1">
          <mxGeometry x="1320" y="730" width="60" height="10" as="geometry" />
        </mxCell>
        <mxCell id="zMRgdvd7SyovayltF2mc-107" value="enemy" style="verticalLabelPosition=bottom;verticalAlign=top;html=1;shape=mxgraph.basic.smiley" vertex="1" parent="1">
          <mxGeometry x="760" y="290" width="150" height="40" as="geometry" />
        </mxCell>
        <mxCell id="zMRgdvd7SyovayltF2mc-109" value="" style="endArrow=none;dashed=1;html=1;dashPattern=1 3;strokeWidth=2;rounded=0;entryX=0.251;entryY=0.353;entryDx=0;entryDy=0;entryPerimeter=0;exitX=0.683;exitY=1.103;exitDx=0;exitDy=0;exitPerimeter=0;" edge="1" parent="1" source="zMRgdvd7SyovayltF2mc-107" target="zMRgdvd7SyovayltF2mc-76">
          <mxGeometry width="50" height="50" relative="1" as="geometry">
            <mxPoint x="970" y="530" as="sourcePoint" />
            <mxPoint x="1020" y="480" as="targetPoint" />
          </mxGeometry>
        </mxCell>
        <mxCell id="zMRgdvd7SyovayltF2mc-110" value="Line of Sight" style="edgeLabel;html=1;align=center;verticalAlign=middle;resizable=0;points=[];rotation=60;" vertex="1" connectable="0" parent="zMRgdvd7SyovayltF2mc-109">
          <mxGeometry x="-0.0247" relative="1" as="geometry">
            <mxPoint as="offset" />
          </mxGeometry>
        </mxCell>
        <mxCell id="zMRgdvd7SyovayltF2mc-111" value="" style="endArrow=classic;html=1;rounded=0;exitX=1;exitY=0.5;exitDx=0;exitDy=0;exitPerimeter=0;entryX=0;entryY=0.5;entryDx=0;entryDy=0;entryPerimeter=0;" edge="1" parent="1" source="zMRgdvd7SyovayltF2mc-76" target="zMRgdvd7SyovayltF2mc-80">
          <mxGeometry relative="1" as="geometry">
            <mxPoint x="1220" y="800" as="sourcePoint" />
            <mxPoint x="1290" y="830" as="targetPoint" />
          </mxGeometry>
        </mxCell>
        <mxCell id="zMRgdvd7SyovayltF2mc-112" value="" style="shape=message;html=1;outlineConnect=0;" vertex="1" parent="zMRgdvd7SyovayltF2mc-111">
          <mxGeometry width="20" height="14" relative="1" as="geometry">
            <mxPoint x="-10" y="-7" as="offset" />
          </mxGeometry>
        </mxCell>
        <mxCell id="zMRgdvd7SyovayltF2mc-113" value="" style="endArrow=classic;html=1;rounded=0;exitX=1;exitY=0.5;exitDx=0;exitDy=0;exitPerimeter=0;entryX=0.5;entryY=1;entryDx=0;entryDy=0;entryPerimeter=0;" edge="1" parent="1" source="zMRgdvd7SyovayltF2mc-76" target="zMRgdvd7SyovayltF2mc-82">
          <mxGeometry relative="1" as="geometry">
            <mxPoint x="1160" y="810" as="sourcePoint" />
            <mxPoint x="1340" y="780" as="targetPoint" />
          </mxGeometry>
        </mxCell>
        <mxCell id="zMRgdvd7SyovayltF2mc-114" value="" style="shape=message;html=1;outlineConnect=0;" vertex="1" parent="zMRgdvd7SyovayltF2mc-113">
          <mxGeometry width="20" height="14" relative="1" as="geometry">
            <mxPoint x="-10" y="-7" as="offset" />
          </mxGeometry>
        </mxCell>
        <mxCell id="zMRgdvd7SyovayltF2mc-115" value="" style="endArrow=classic;html=1;rounded=0;exitX=1;exitY=0.5;exitDx=0;exitDy=0;exitPerimeter=0;entryX=0.5;entryY=1;entryDx=0;entryDy=0;entryPerimeter=0;" edge="1" parent="1" source="zMRgdvd7SyovayltF2mc-76" target="zMRgdvd7SyovayltF2mc-81">
          <mxGeometry relative="1" as="geometry">
            <mxPoint x="1170" y="820" as="sourcePoint" />
            <mxPoint x="1350" y="790" as="targetPoint" />
            <Array as="points">
              <mxPoint x="1310" y="810" />
            </Array>
          </mxGeometry>
        </mxCell>
        <mxCell id="zMRgdvd7SyovayltF2mc-116" value="" style="shape=message;html=1;outlineConnect=0;" vertex="1" parent="zMRgdvd7SyovayltF2mc-115">
          <mxGeometry width="20" height="14" relative="1" as="geometry">
            <mxPoint x="-10" y="-7" as="offset" />
          </mxGeometry>
        </mxCell>
        <mxCell id="zMRgdvd7SyovayltF2mc-123" value="" style="endArrow=classic;html=1;rounded=0;exitX=1;exitY=0.5;exitDx=0;exitDy=0;exitPerimeter=0;entryX=0.5;entryY=1;entryDx=0;entryDy=0;entryPerimeter=0;" edge="1" parent="1" source="zMRgdvd7SyovayltF2mc-76" target="zMRgdvd7SyovayltF2mc-79">
          <mxGeometry relative="1" as="geometry">
            <mxPoint x="1290" y="800" as="sourcePoint" />
            <mxPoint x="1390" y="800" as="targetPoint" />
            <Array as="points">
              <mxPoint x="1310" y="840" />
            </Array>
          </mxGeometry>
        </mxCell>
        <mxCell id="zMRgdvd7SyovayltF2mc-124" value="" style="shape=message;html=1;outlineConnect=0;" vertex="1" parent="zMRgdvd7SyovayltF2mc-123">
          <mxGeometry width="20" height="14" relative="1" as="geometry">
            <mxPoint x="-40" y="-1" as="offset" />
          </mxGeometry>
        </mxCell>
        <mxCell id="zMRgdvd7SyovayltF2mc-126" value="" style="endArrow=classic;html=1;rounded=0;exitX=0.5;exitY=0;exitDx=0;exitDy=0;exitPerimeter=0;entryX=0.5;entryY=1;entryDx=0;entryDy=0;entryPerimeter=0;" edge="1" parent="1" source="zMRgdvd7SyovayltF2mc-82" target="zMRgdvd7SyovayltF2mc-83">
          <mxGeometry relative="1" as="geometry">
            <mxPoint x="1230" y="730" as="sourcePoint" />
            <mxPoint x="1330" y="730" as="targetPoint" />
          </mxGeometry>
        </mxCell>
        <mxCell id="zMRgdvd7SyovayltF2mc-127" value="" style="shape=message;html=1;outlineConnect=0;" vertex="1" parent="zMRgdvd7SyovayltF2mc-126">
          <mxGeometry width="20" height="14" relative="1" as="geometry">
            <mxPoint x="-10" y="-7" as="offset" />
          </mxGeometry>
        </mxCell>
        <mxCell id="zMRgdvd7SyovayltF2mc-128" value="" style="endArrow=classic;html=1;rounded=0;exitX=0;exitY=0.5;exitDx=0;exitDy=0;exitPerimeter=0;entryX=1;entryY=0.5;entryDx=0;entryDy=0;entryPerimeter=0;" edge="1" parent="1" source="zMRgdvd7SyovayltF2mc-83" target="zMRgdvd7SyovayltF2mc-84">
          <mxGeometry relative="1" as="geometry">
            <mxPoint x="1230" y="730" as="sourcePoint" />
            <mxPoint x="1330" y="730" as="targetPoint" />
          </mxGeometry>
        </mxCell>
        <mxCell id="zMRgdvd7SyovayltF2mc-129" value="" style="shape=message;html=1;outlineConnect=0;" vertex="1" parent="zMRgdvd7SyovayltF2mc-128">
          <mxGeometry width="20" height="14" relative="1" as="geometry">
            <mxPoint x="-30" y="-7" as="offset" />
          </mxGeometry>
        </mxCell>
      </root>
    </mxGraphModel>
  </diagram>
</mxfile>
